<svg id="Layer_1" data-name="Layer 1" xmlns="http://www.w3.org/2000/svg" viewBox="0 0 21.33 21.23"><defs><style>.cls-1{fill:none;stroke:#000;stroke-miterlimit:10;stroke-width:2.17px;}</style></defs><title>pill_add</title><path d="M18.4,9.4a3.85,3.85,0,0,1-1.2,3l-3.5,3.5L9.5,11.7l-6,6a4.1,4.1,0,0,1,1-3.9l7.1-7.1a4.23,4.23,0,0,1,3-1.2v-2a6.11,6.11,0,0,0-4.4,1.7L3.1,12.3a6.1,6.1,0,0,0,0,8.5,6.1,6.1,0,0,0,8.5,0l7.1-7.1a5.72,5.72,0,0,0,1.7-4.4l-2,.1Z" transform="translate(-1.37 -1.3)"/><line class="cls-1" x1="18.03" x2="18.03" y2="6.5"/><line class="cls-1" x1="21.33" y1="3.3" x2="14.83" y2="3.3"/></svg>